<svg width="25" height="25" viewBox="0 0 25 25" fill="none" xmlns="http://www.w3.org/2000/svg">
<path d="M21.5 16.5V8.49999C21.4996 8.14927 21.4071 7.8048 21.2315 7.50116C21.056 7.19751 20.8037 6.94536 20.5 6.76999L13.5 2.76999C13.196 2.59446 12.8511 2.50204 12.5 2.50204C12.1489 2.50204 11.804 2.59446 11.5 2.76999L4.5 6.76999C4.19626 6.94536 3.94398 7.19751 3.76846 7.50116C3.59294 7.8048 3.50036 8.14927 3.5 8.49999V16.5C3.50036 16.8507 3.59294 17.1952 3.76846 17.4988C3.94398 17.8025 4.19626 18.0546 4.5 18.23L11.5 22.23C11.804 22.4055 12.1489 22.4979 12.5 22.4979C12.8511 22.4979 13.196 22.4055 13.5 22.23L20.5 18.23C20.8037 18.0546 21.056 17.8025 21.2315 17.4988C21.4071 17.1952 21.4996 16.8507 21.5 16.5Z" stroke="#1E1E1E" stroke-width="2" stroke-linecap="round" stroke-linejoin="round"/>
<path d="M3.77002 7.45999L12.5 12.51L21.23 7.45999" stroke="#1E1E1E" stroke-width="2" stroke-linecap="round" stroke-linejoin="round"/>
<path d="M12.5 22.58V12.5" stroke="#1E1E1E" stroke-width="2" stroke-linecap="round" stroke-linejoin="round"/>
<circle cx="18.6984" cy="15.9" r="0.8" fill="#1E1E1E"/>
<circle cx="15.6984" cy="14.4808" r="0.8" fill="#1E1E1E"/>
<circle cx="12.6984" cy="7.48085" r="0.8" fill="#1E1E1E"/>
<circle cx="9.69844" cy="17.4808" r="0.8" fill="#1E1E1E"/>
<circle cx="6.20002" cy="15.8" r="0.8" fill="#1E1E1E"/>
<circle cx="6.3" cy="12.3624" r="0.8" fill="#1E1E1E"/>
<circle cx="9.70002" cy="14.1" r="0.8" fill="#1E1E1E"/>
</svg>
